{"title":"Falling.Up.2009.DVDRip.XviD-Emery","uid":5306075,"size":738514061,"categoryP":"video","categoryS":"movies","magnet":"?xt=urn:btih:889f7ab2a40f83cd0cd4f06acc9e8c0fb5af5c14&amp;dn=Falling.Up.2009.DVDRip.XviD-Emery&amp;tr=udp%3A%2F%2Ftracker.openbittorrent.com%3A80&amp;tr=udp%3A%2F%2Fopen.demonii.com%3A1337&amp;tr=udp%3A%2F%2Ftracker.coppersurfer.tk%3A6969&amp;tr=udp%3A%2F%2Fexodus.desync.com%3A6969","seeders":0,"leechers":0,"uploader":"Emery2010","files":-1,"time":1264391648,"description":"General\nComplete name                    : C:UsersJordonEmeryFalling.Up.2009.DVDRip.XviD-EmeryFalling.Up.2009.DVDRip.XviD-Emery.avi\nFormat                           : AVI\nFormat/Info                      : Audio Video Interleave\nFile size                        : 704 MiB\nDuration                         : 1h 38mn\nOverall bit rate                 : 1 000 Kbps\nWriting application              : VirtualDubMod 1.5.10.2 (build 2540/release)\nWriting library                  : VirtualDubMod build 2540/release\n\nVideo\nID                               : 0\nFormat                           : MPEG-4 Visual\nFormat profile                   : AdvancedSimple@L5\nFormat settings, BVOP            : Yes\nFormat settings, QPel            : No\nFormat settings, GMC             : No warppoints\nFormat settings, Matrix          : Default (H.263)\nMuxing mode                      : Packed bitstream\nCodec ID                         : XVID\nCodec ID/Hint                    : XviD\nDuration                         : 1h 38mn\nBit rate                         : 863 Kbps\nWidth                            : 624 pixels\nHeight                           : 336 pixels\nDisplay aspect ratio             : 1.857\nFrame rate                       : 23.976 fps\nResolution                       : 24 bits\nColorimetry                      : 4:2:0\nScan type                        : Progressive\nBits/(Pixel*Frame)               : 0.172\nStream size                      : 608 MiB (86%)\nWriting library                  : XviD 1.2.1 (UTC 2008-12-04)\n\nAudio\nID                               : 1\nFormat                           : MPEG Audio\nFormat version                   : Version 1\nFormat profile                   : Layer 3\nFormat settings, Mode            : Joint stereo / MS Stereo\nCodec ID                         : 55\nCodec ID/Hint                    : MP3\nDuration                         : 1h 38mn\nBit rate mode                    : Constant\nBit rate                         : 128 Kbps\nChannel(s)                       : 2 channels\nSampling rate                    : 48.0 KHz\nResolution                       : 16 bits\nStream size                      : 90.2 MiB (13%)\nAlignment                        : Aligned on interleaves\nInterleave, duration             : 42 ms (1.00 video frame)\nInterleave, preload duration     : 504 ms\n\nIMDB LINK: http://www.imdb.com/title/tt1084955/","torrent":{"xt":"urn:btih:889f7ab2a40f83cd0cd4f06acc9e8c0fb5af5c14","amp;dn":"Falling.Up.2009.DVDRip.XviD-Emery","amp;tr":["udp%3A%2F%2Ftracker.openbittorrent.com%3A80","udp%3A%2F%2Fopen.demonii.com%3A1337","udp%3A%2F%2Ftracker.coppersurfer.tk%3A6969","udp%3A%2F%2Fexodus.desync.com%3A6969"],"infoHash":"889f7ab2a40f83cd0cd4f06acc9e8c0fb5af5c14","infoHashBuffer":{"type":"Buffer","data":[136,159,122,178,164,15,131,205,12,212,240,106,204,158,140,15,181,175,92,20]},"announce":[],"urlList":[]}}